# xmcd
#
# Track frame offsets:
#	150
#	18931
#	38198
#	55111
#	76537
#	99951
#
# Disc length: 1483 seconds
#
# Revision: 0
# Processed by: cddbd v1.5PL3 Copyright (c) Steve Scherf et al.
# Submitted via: dBpowerAMP V4.0
#
DISCID=3305c906
DTITLE=Thunder Rose - Jake's Afraid of Aliens
DYEAR=1900
DGENRE=Country
TTITLE0=Seaboard
TTITLE1=You Love Me
TTITLE2=Gils Creak Road
TTITLE3=Leaving Georgia Behind
TTITLE4=Bridges Gonna Burn
TTITLE5=Jake's Afraid Of Aliens
EXTD=Thsi is an album by a local South Carolina Band.  The album was mixed by Bob Moore at SoundLab Studios in Lexington, SC.
EXTT0=
EXTT1=
EXTT2=
EXTT3=
EXTT4=
EXTT5=
PLAYORDER=
